PathFileType	4	(X/Y/Z)	C:/Users/beibeiliu/ov580/test_trc/User3\sequence.10_training_dense_right.trc
DataRate	CameraRate	NumFrames	NumMarkers	Units	OrigDataRate	OrigDataStartFrame	OrigNumFrames
120	120	16	19	mm	120	30	117
Frame#	Time	ThumbCMC			ThumbMCP			ThumbIP			ThumbTip			IndexMCP			IndexPIP			IndexTip			MiddleMCP			MiddlePIP			MiddleTip			RingMCP			RingPIP			RingTip			PinkyMCP			PinkyPIP			PinkyTip			BackHand1			BackHand2			BackHand3	
		X0	Y0	Z0	X1	Y1	Z1	X2	Y2	Z2	X3	Y3	Z3	X4	Y4	Z4	X5	Y5	Z5	X6	Y6	Z6	X7	Y7	Z7	X8	Y8	Z8	X9	Y9	Z9	X10	Y10	Z10	X11	Y11	Z11	X12	Y12	Z12	X13	Y13	Z13	X14	Y14	Z14	X15	Y15	Z15	X16	Y16	Z16	X17	Y17	Z17	X18	Y18	Z18	
29	0.241667	47.3267	-55.7456	25.3437	27.7459	-66.6601	0.660535	12.5078	-74.1202	-27.5445	15.4029	-84.0443	-51.6464	47.8746	-43.2176	-52.6942	33.0153	-59.8361	-68.5469	24.9093	-89.0541	-68.6606	75.89	-35.5898	-59.6747	66.7644	-40.1865	-86.6259	50.9059	-49.5629	-115.394	97.1518	-46.9217	-50.6839	94.5054	-43.4162	-78.5353	90.685	-45.5936	-104.761	114.702	-64.948	-37.3219	123.845	-65.5401	-60.6625	131.525	-67.7279	-79.1744	104.26	-45.2546	-1.52817	112.516	-49.0022	29.3284	75.0046	-33.8222	19.5296	
30	0.25	44.8327	-55.796	23.201	26.2438	-66.6333	-1.15089	14.7499	-75.8032	-25.3428	14.7535	-85.643	-47.1901	44.8669	-41.7296	-48.8576	34.6096	-62.9245	-69.22	25.5994	-89.353	-69.9275	75.1496	-36.9817	-58.1304	66.1591	-40.0611	-87.1326	54.5059	-51.379	-114.525	96.8608	-46.4208	-52.4306	93.2365	-43.3775	-77.2805	93.2903	-48.7014	-106.877	113.314	-64.4935	-38.3767	119.996	-64.4985	-60.6061	128.543	-66.8086	-79.3424	104.501	-47.2808	-0.332976	109.152	-50.0793	27.3112	76.0949	-34.3674	19.3253	
31	0.258333	45.493	-57.442	24.5323	26.0723	-68.5097	-3.50496	14.3962	-76.6888	-26.203	12.3744	-87.7453	-50.4651	49.544	-42.4651	-48.3738	32.4763	-63.5434	-69.3758	26.7016	-92.7801	-69.6362	75.6759	-36.9782	-59.1937	67.8495	-41.0758	-85.903	52.1501	-51.3082	-115.763	94.8578	-46.9243	-52.9531	94.6829	-45.7955	-78.2501	89.9791	-47.3064	-102.195	115.382	-66.7646	-37.2992	120.281	-66.2443	-58.6565	126.263	-67.1946	-81.5223	102.179	-47.4523	-0.767773	107.96	-48.5448	30.2997	78.4566	-36.768	18.0574	
32	0.266667	42.8616	-57.4835	27.7468	24.149	-68.8419	-2.97669	11.182	-76.5178	-28.232	12.5307	-87.9381	-50.9286	47.8523	-41.8683	-47.2778	28.0403	-64.4469	-68.0687	23.2297	-90.2274	-67.4577	74.2587	-38.1754	-54.9722	62.918	-40.3271	-85.2757	54.8987	-52.2926	-114.329	94.9155	-47.8462	-50.5582	92.8833	-45.0087	-76.2976	91.6696	-49.6911	-105.091	113.093	-66.4405	-35.8881	123.236	-68.6423	-57.4073	126.2	-69.5345	-83.6394	105.114	-47.8922	0.65143	110.727	-52.5563	27.5522	77.9073	-36.4423	15.3411	
33	0.275	43.8379	-59.0112	25.9925	23.9461	-69.9366	2.13362	11.2001	-78.4348	-24.2636	9.68496	-87.727	-50.9345	42.4844	-43.3088	-49.6189	29.313	-62.8901	-67.8029	25.346	-92.3785	-68.6183	76.1746	-40.4381	-55.1873	64.1893	-40.8076	-84.6739	52.6321	-50.595	-111.755	95.459	-48.1554	-53.7912	94.4701	-46.1625	-77.2098	92.9867	-51.5081	-102.299	114.107	-66.5047	-38.3408	121.983	-68.2431	-57.8008	129.939	-69.5914	-83.0335	103.581	-46.4626	0.733042	107.379	-50.6515	26.402	73.2856	-36.825	19.661	
34	0.283333	44.7623	-59.1899	22.9285	23.2985	-69.3823	-1.89028	14.7912	-77.953	-23.967	8.92669	-87.8229	-50.9666	47.8775	-45.1839	-50.0389	27.0545	-66.2267	-69.1506	23.1864	-92.4588	-68.6657	70.4602	-37.8371	-58.6906	63.9314	-41.3206	-84.2949	52.5089	-53.6382	-115.284	93.081	-47.9958	-51.9638	93.9074	-47.3114	-75.7299	88.3581	-49.7769	-106.425	112.91	-67.2313	-38.9207	121.262	-69.3615	-59.5571	125.943	-68.8816	-81.6792	103.747	-50.5565	1.15023	106.993	-52.722	29.173	74.0671	-37.1895	15.8882	
35	0.291667	45.305	-59.8252	26.1004	23.7004	-69.4296	-3.68413	10.6115	-78.0321	-26.1035	13.1092	-88.2252	-49.1322	42.7325	-44.2558	-51.8692	32.6081	-64.3922	-69.1118	21.5385	-92.3034	-68.4259	72.4525	-38.3237	-60.7072	64.3845	-42.059	-86.9682	55.4546	-54.4086	-114.865	95.8317	-50.1281	-51.4155	90.9794	-45.9237	-79.4666	90.7621	-51.2838	-107.855	112.979	-66.1348	-41.0866	118.359	-68.6935	-57.4678	125.508	-70.8251	-82.2604	101.151	-47.073	0.481407	107.794	-52.731	30.7134	77.0787	-37.5528	16.3446	
36	0.3	44.6591	-58.7144	22.0284	25.7693	-70.5159	-0.365131	11.6752	-77.9699	-30.7108	11.4353	-89.089	-50.4543	47.2231	-45.0253	-52.5371	29.3039	-64.1162	-69.6883	25.4998	-92.8178	-69.6471	69.9308	-38.1073	-59.7561	64.4855	-43.0487	-85.8384	50.4842	-53.8876	-116.555	94.1333	-49.4427	-51.3819	91.989	-47.4034	-80.7581	88.344	-51.4755	-107.267	113.974	-69.1734	-37.4977	122.404	-68.9884	-63.3283	125.192	-68.805	-79.6526	100.792	-49.4673	-0.425818	106.245	-50.5235	25.2238	76.3475	-37.9503	18.6674	
37	0.308333	46.3244	-60.7478	25.3496	23.9795	-70.6798	-0.143175	11.026	-78.8407	-31.0176	12.2233	-90.0639	-51.6938	47.577	-45.4205	-50.6012	33.3366	-64.1865	-70.9546	21.2789	-93.834	-68.4909	73.2956	-38.9296	-60.2544	66.9502	-44.1115	-87.8586	54.1592	-56.8116	-116.816	95.5606	-48.9955	-51.576	92.3192	-47.3015	-81.347	87.6968	-50.427	-105.036	115.843	-69.2029	-40.1138	122.225	-69.359	-63.3071	125.231	-69.4216	-84.6893	103.543	-48.6701	0.329923	110.546	-51.5154	24.474	76.0558	-37.3041	13.0391	
38	0.316667	45.7573	-60.0502	26.2228	25.4748	-70.5606	-0.0948179	12.6226	-78.5555	-29.6238	11.6043	-90.3022	-48.2902	46.4322	-46.7971	-53.5192	30.3427	-66.2222	-70.5357	24.3378	-96.2435	-67.6059	76.36	-40.7779	-59.2488	64.6213	-43.1483	-85.9431	51.042	-55.6412	-116.363	93.4825	-48.577	-54.7724	94.7854	-48.0915	-77.4162	87.7229	-51.259	-104.789	114.518	-68.7312	-37.8887	122.674	-70.3799	-57.8501	125.368	-70.3071	-80.8359	102.476	-50.2589	0.280661	107.444	-50.8479	25.2532	77.5526	-36.5271	14.4975	
39	0.325	42.4583	-60.1355	26.6586	26.7999	-70.9322	-4.03701	17.0165	-79.5155	-29.3524	13.1967	-91.0941	-47.4873	46.7889	-45.6002	-47.2363	30.2756	-64.1644	-69.1089	22.4958	-95.4577	-67.8086	72.3702	-39.6036	-60.0148	65.3969	-45.4477	-88.6873	54.0697	-59.2214	-116.379	96.2839	-50.6026	-55.6303	92.7403	-48.9768	-79.0986	87.3927	-53.9084	-106.509	112.592	-66.858	-38.8968	122.837	-69.0632	-60.4714	126.946	-71.46	-83.8338	105.422	-51.0738	-0.719681	110.661	-53.9707	28.3962	76.153	-36.468	15.1889	
40	0.333333	43.9013	-59.74	23.921	27.9888	-72.3875	-1.11352	15.1589	-80.9844	-26.9003	14.9029	-90.5361	-48.9898	47.0375	-45.8803	-48.7192	34.4378	-66.6728	-69.8634	25.9034	-99.4025	-68.2587	77.46	-42.4423	-58.7758	66.5032	-45.8898	-84.3141	54.9386	-59.2637	-115.189	98.1597	-53.8581	-51.2559	93.848	-51.0774	-78.2468	91.751	-56.2416	-104.306	117.429	-70.3715	-38.0591	124.632	-71.6094	-60.2445	129.728	-73.6893	-81.778	103.438	-50.6018	-0.705417	111.023	-52.124	27.9205	78.8804	-40.3873	15.8423	
41	0.341667	46.5506	-60.6126	24.5086	26.8286	-72.4766	1.33552	17.8344	-80.4573	-28.074	14.552	-91.6204	-51.2936	46.2154	-45.9977	-49.1224	33.4193	-67.5829	-69.8092	24.5133	-95.3704	-68.7651	75.1223	-41.2213	-61.1431	69.4296	-47.3651	-87.2747	57.834	-61.4662	-116.453	98.16	-52.5989	-54.5941	94.2291	-50.6221	-76.2964	91.5149	-58.2621	-107.35	117.276	-71.338	-36.0764	121.999	-70.2276	-62.5997	129.872	-74.319	-80.4237	106.151	-50.1186	1.37479	110.159	-54.1436	25.2592	76.3318	-38.6927	17.1968	
42	0.35	48.0489	-60.1893	23.1201	29.1263	-72.3392	0.806639	16.1415	-80.3626	-28.7374	13.9762	-91.0218	-52.3891	49.157	-48.6614	-52.9582	36.2126	-66.8357	-69.6152	27.502	-95.6975	-69.2906	78.2907	-42.2721	-61.9649	71.2632	-46.3677	-85.2283	57.8972	-59.0512	-114.886	95.2732	-51.6611	-52.2818	95.0748	-50.7269	-78.9399	89.8828	-55.0316	-103.011	118.512	-70.8599	-36.9326	124.992	-70.7162	-57.7813	130.267	-72.3523	-82.0548	105.999	-49.8247	1.17833	111.849	-53.5309	24.9679	76.8538	-38.4401	13.5953	
43	0.358333	45.359	-59.9709	24.3408	30.4918	-72.184	-0.148297	17.737	-80.4925	-26.2042	16.3167	-90.5791	-47.7399	51.9825	-47.3457	-49.1118	32.123	-69.7078	-70.5762	25.8548	-95.682	-69.2582	77.3847	-43.3934	-56.5524	66.6642	-45.5871	-85.9843	56.4568	-57.5507	-112.737	97.1734	-51.6149	-50.6149	94.2224	-50.9757	-80.5067	93.7966	-57.8559	-104.434	119.33	-69.7207	-38.2034	122.497	-69.6226	-59.4238	129.477	-73.132	-81.5954	105.298	-50.2403	1.57854	111.539	-52.2946	25.7287	80.5348	-40.6471	17.1486	
44	0.366667	48.9514	-61.637	21.0839	30.6797	-72.1709	0.608074	18.1936	-80.9277	-25.663	16.3034	-91.5256	-48.8958	48.0923	-47.6311	-52.8516	33.0697	-66.5072	-69.3407	29.433	-98.2153	-70.131	75.6077	-42.8115	-59.34	69.634	-47.5456	-87.6539	56.9358	-58.6535	-114.966	97.1504	-51.8616	-54.7608	94.3342	-50.5867	-81.1728	92.8401	-58.055	-105.095	114.352	-69.4129	-38.5991	123.859	-71.0972	-61.3587	126.057	-71.7049	-82.5716	106.381	-48.8654	-2.6605	111.485	-55.0294	29.0597	78.1475	-39.8357	17.8882	
